<?xml version="1.0" encoding="UTF-8" standalone="no"?><!DOCTYPE svg PUBLIC "-//W3C//DTD SVG 1.1//EN" "http://www.w3.org/Graphics/SVG/1.1/DTD/svg11.dtd"><svg width="100%" height="100%" viewBox="0 0 72 72" version="1.1" xmlns="http://www.w3.org/2000/svg" xmlns:xlink="http://www.w3.org/1999/xlink" xml:space="preserve" xmlns:serif="http://www.serif.com/" style="fill-rule:evenodd;clip-rule:evenodd;stroke-linejoin:round;stroke-miterlimit:2;"><path d="M36,0l9.12,14.64l-18.24,0l9.12,-14.64Zm-5.76,17.04l0,42.96l-3.36,0l0,-42.96l3.36,0Zm14.88,0l0,42.96l-3.36,0l0,-42.96l3.36,0Zm-6.24,0l0,42.96l-5.76,0l0,-42.96l5.76,0Zm6.24,45.36l0,5.33c0,2.357 -1.913,4.27 -4.27,4.27l-9.7,0c-2.357,0 -4.27,-1.913 -4.27,-4.27l0,-5.33l18.24,0Z"/></svg>